<?xml version="1.0" encoding="UTF-8" standalone="no"?>
<!DOCTYPE svg PUBLIC "-//W3C//DTD SVG 1.1//EN"
 "http://www.w3.org/Graphics/SVG/1.1/DTD/svg11.dtd">
<!-- Generated by graphviz version 2.38.0 (20140413.2041)
 -->
<!-- Title: G Pages: 1 -->
<svg width="2543pt" height="437pt"
 viewBox="0.00 0.00 2543.00 436.80" xmlns="http://www.w3.org/2000/svg" xmlns:xlink="http://www.w3.org/1999/xlink">
<g id="graph0" class="graph" transform="scale(1 1) rotate(0) translate(4 432.8)">
<title>G</title>
<polygon fill="white" stroke="none" points="-4,4 -4,-432.8 2539,-432.8 2539,4 -4,4"/>
<g id="clust1" class="cluster"><title>cluster_0</title>
<polygon fill="lightgray" stroke="lightgrey" points="8,-8 8,-420.8 1710,-420.8 1710,-8 8,-8"/>
<text text-anchor="middle" x="342.2" y="-389.8" font-family="Times,serif" font-size="30.00">/home/caiomi/PROGRAMATION/Cube/nodejs/dev.js</text>
</g>
<g id="clust2" class="cluster"><title>cluster_1</title>
<polygon fill="lightgray" stroke="lightgrey" points="1718,-66.6 1718,-420.8 2527,-420.8 2527,-66.6 1718,-66.6"/>
<text text-anchor="middle" x="2067.18" y="-389.8" font-family="Times,serif" font-size="30.00">/home/caiomi/PROGRAMATION/Cube/nodejs/server.js</text>
</g>
<!-- 0 -->
<g id="node1" class="node"><title>0</title>
<polygon fill="lightyellow" stroke="black" points="1398.09,-217.9 1398.09,-368.3 1701.91,-368.3 1701.91,-217.9 1398.09,-217.9"/>
<text text-anchor="middle" x="1550" y="-351.7" font-family="Times,serif" font-size="14.00">«GLOBAL»</text>
<polyline fill="none" stroke="black" points="1398.09,-343.5 1701.91,-343.5 "/>
<text text-anchor="start" x="1406.09" y="-326.9" font-family="Times,serif" font-size="14.00">&#45;MySQLEvents : variable = rodrigogsmysql&#45;events</text>
<text text-anchor="start" x="1406.09" y="-310.1" font-family="Times,serif" font-size="14.00">&#45;config : variable = .config.json</text>
<text text-anchor="start" x="1406.09" y="-293.3" font-family="Times,serif" font-size="14.00">&#45;express : variable = express</text>
<text text-anchor="start" x="1406.09" y="-276.5" font-family="Times,serif" font-size="14.00">&#45;io : variable = server</text>
<text text-anchor="start" x="1406.09" y="-259.7" font-family="Times,serif" font-size="14.00">&#45;mysql : variable = mysql</text>
<text text-anchor="start" x="1406.09" y="-242.9" font-family="Times,serif" font-size="14.00">&#45;pool : variable</text>
<text text-anchor="start" x="1406.09" y="-226.1" font-family="Times,serif" font-size="14.00">&#45;server : variable = express</text>
</g>
<!-- 2 -->
<g id="node2" class="node"><title>2</title>
<polygon fill="lightblue" stroke="black" points="1270.52,-259.9 1270.52,-326.3 1391.48,-326.3 1391.48,-259.9 1270.52,-259.9"/>
<text text-anchor="middle" x="1331" y="-309.7" font-family="Times,serif" font-size="14.00">«FUNCTION»</text>
<text text-anchor="middle" x="1331" y="-292.9" font-family="Times,serif" font-size="14.00"> ()</text>
<polyline fill="none" stroke="black" points="1270.52,-284.7 1391.48,-284.7 "/>
<text text-anchor="start" x="1278.52" y="-268.1" font-family="Times,serif" font-size="14.00">&#45;dbevent : variable</text>
</g>
<!-- 3 -->
<g id="node3" class="node"><title>3</title>
<polygon fill="lightblue" stroke="black" points="1152.57,-259.9 1152.57,-326.3 1263.43,-326.3 1263.43,-259.9 1152.57,-259.9"/>
<text text-anchor="middle" x="1208" y="-309.7" font-family="Times,serif" font-size="14.00">«FUNCTION»</text>
<text text-anchor="middle" x="1208" y="-292.9" font-family="Times,serif" font-size="14.00"> function</text>
<polyline fill="none" stroke="black" points="1152.57,-284.7 1263.43,-284.7 "/>
<text text-anchor="start" x="1160.57" y="-268.1" font-family="Times,serif" font-size="14.00">&#45;undefined(pool)</text>
</g>
<!-- 4 -->
<g id="node4" class="node"><title>4</title>
<polygon fill="lightblue" stroke="black" points="1175.96,-146.5 1175.96,-188.1 1286.04,-188.1 1286.04,-146.5 1175.96,-146.5"/>
<text text-anchor="middle" x="1231" y="-171.5" font-family="Times,serif" font-size="14.00">«FUNCTION»</text>
<text text-anchor="middle" x="1231" y="-154.7" font-family="Times,serif" font-size="14.00"> function</text>
</g>
<!-- 3&#45;&gt;4 -->
<g id="edge1" class="edge"><title>3&#45;&gt;4</title>
<path fill="none" stroke="black" d="M1216.2,-247.982C1219.98,-227.607 1224.29,-204.425 1227.28,-188.339"/>
<polygon fill="black" stroke="black" points="1216.17,-248.098 1219.01,-254.728 1213.98,-259.896 1211.15,-253.266 1216.17,-248.098"/>
</g>
<!-- 5 -->
<g id="node5" class="node"><title>5</title>
<polygon fill="lightblue" stroke="black" points="1035.96,-272.3 1035.96,-313.9 1146.04,-313.9 1146.04,-272.3 1035.96,-272.3"/>
<text text-anchor="middle" x="1091" y="-297.3" font-family="Times,serif" font-size="14.00">«FUNCTION»</text>
<text text-anchor="middle" x="1091" y="-280.5" font-family="Times,serif" font-size="14.00"> function</text>
</g>
<!-- 6 -->
<g id="node6" class="node"><title>6</title>
<polygon fill="lightblue" stroke="black" points="902.611,-272.3 902.611,-313.9 1029.39,-313.9 1029.39,-272.3 902.611,-272.3"/>
<text text-anchor="middle" x="966" y="-297.3" font-family="Times,serif" font-size="14.00">«FUNCTION»</text>
<text text-anchor="middle" x="966" y="-280.5" font-family="Times,serif" font-size="14.00"> clientWebUpdate()</text>
</g>
<!-- 7 -->
<g id="node7" class="node"><title>7</title>
<polygon fill="lightblue" stroke="black" points="891.686,-125.7 891.686,-208.9 1052.31,-208.9 1052.31,-125.7 891.686,-125.7"/>
<text text-anchor="middle" x="972" y="-192.3" font-family="Times,serif" font-size="14.00">«FUNCTION»</text>
<text text-anchor="middle" x="972" y="-175.5" font-family="Times,serif" font-size="14.00"> (err,result)</text>
<polyline fill="none" stroke="black" points="891.686,-167.3 1052.31,-167.3 "/>
<text text-anchor="start" x="899.686" y="-150.7" font-family="Times,serif" font-size="14.00">&#45;Rmax : binaryexpression</text>
<text text-anchor="start" x="899.686" y="-133.9" font-family="Times,serif" font-size="14.00">&#45;deltat : binaryexpression</text>
</g>
<!-- 6&#45;&gt;7 -->
<g id="edge2" class="edge"><title>6&#45;&gt;7</title>
<path fill="none" stroke="black" d="M967.555,-260.013C968.311,-244.417 969.228,-225.503 970.032,-208.913"/>
<polygon fill="black" stroke="black" points="967.545,-260.223 971.25,-266.41 966.964,-272.209 963.259,-266.023 967.545,-260.223"/>
</g>
<!-- 8 -->
<g id="node8" class="node"><title>8</title>
<polygon fill="lightblue" stroke="black" points="1058.96,-146.5 1058.96,-188.1 1169.04,-188.1 1169.04,-146.5 1058.96,-146.5"/>
<text text-anchor="middle" x="1114" y="-171.5" font-family="Times,serif" font-size="14.00">«FUNCTION»</text>
<text text-anchor="middle" x="1114" y="-154.7" font-family="Times,serif" font-size="14.00"> (err,result)</text>
</g>
<!-- 6&#45;&gt;8 -->
<g id="edge3" class="edge"><title>6&#45;&gt;8</title>
<path fill="none" stroke="black" d="M987.177,-262.161C999.167,-247.02 1015.29,-229.366 1033,-217.4 1041.62,-211.575 1045.76,-214.192 1055,-209.4 1066.52,-203.421 1078.42,-195.517 1088.49,-188.238"/>
<polygon fill="black" stroke="black" points="986.843,-262.599 986.386,-269.795 979.568,-272.142 980.024,-264.945 986.843,-262.599"/>
</g>
<!-- 9 -->
<g id="node9" class="node"><title>9</title>
<polygon fill="lightblue" stroke="black" points="769.996,-272.3 769.996,-313.9 896.004,-313.9 896.004,-272.3 769.996,-272.3"/>
<text text-anchor="middle" x="833" y="-297.3" font-family="Times,serif" font-size="14.00">«FUNCTION»</text>
<text text-anchor="middle" x="833" y="-280.5" font-family="Times,serif" font-size="14.00"> circulateur10s1m()</text>
</g>
<!-- 10 -->
<g id="node10" class="node"><title>10</title>
<polygon fill="lightblue" stroke="black" points="774.96,-146.5 774.96,-188.1 885.04,-188.1 885.04,-146.5 774.96,-146.5"/>
<text text-anchor="middle" x="830" y="-171.5" font-family="Times,serif" font-size="14.00">«FUNCTION»</text>
<text text-anchor="middle" x="830" y="-154.7" font-family="Times,serif" font-size="14.00"> (err,data)</text>
</g>
<!-- 9&#45;&gt;10 -->
<g id="edge4" class="edge"><title>9&#45;&gt;10</title>
<path fill="none" stroke="black" d="M832.224,-260.093C831.673,-237.352 830.951,-207.526 830.481,-188.141"/>
<polygon fill="black" stroke="black" points="832.227,-260.213 836.371,-266.114 832.518,-272.209 828.374,-266.308 832.227,-260.213"/>
</g>
<!-- 11 -->
<g id="node11" class="node"><title>11</title>
<polygon fill="khaki" stroke="black" points="777.48,-75.1 777.48,-116.7 882.52,-116.7 882.52,-75.1 777.48,-75.1"/>
<text text-anchor="middle" x="830" y="-100.1" font-family="Times,serif" font-size="14.00">«BLOCK»</text>
<text text-anchor="middle" x="830" y="-83.3" font-family="Times,serif" font-size="14.00"> CallExpression</text>
</g>
<!-- 10&#45;&gt;11 -->
<g id="edge5" class="edge"><title>10&#45;&gt;11</title>
<path fill="none" stroke="black" d="M830,-134.039C830,-128.294 830,-122.459 830,-117.169"/>
<polygon fill="black" stroke="black" points="830,-134.227 834,-140.227 830,-146.227 826,-140.227 830,-134.227"/>
</g>
<!-- 12 -->
<g id="node12" class="node"><title>12</title>
<polygon fill="lightblue" stroke="black" points="583.183,-272.3 583.183,-313.9 762.817,-313.9 762.817,-272.3 583.183,-272.3"/>
<text text-anchor="middle" x="673" y="-297.3" font-family="Times,serif" font-size="14.00">«FUNCTION»</text>
<text text-anchor="middle" x="673" y="-280.5" font-family="Times,serif" font-size="14.00"> circulateur10pcrequalrmax()</text>
</g>
<!-- 13 -->
<g id="node13" class="node"><title>13</title>
<polygon fill="lightblue" stroke="black" points="580.481,-134.1 580.481,-200.5 767.519,-200.5 767.519,-134.1 580.481,-134.1"/>
<text text-anchor="middle" x="674" y="-183.9" font-family="Times,serif" font-size="14.00">«FUNCTION»</text>
<text text-anchor="middle" x="674" y="-167.1" font-family="Times,serif" font-size="14.00"> (err,data)</text>
<polyline fill="none" stroke="black" points="580.481,-158.9 767.519,-158.9 "/>
<text text-anchor="start" x="588.481" y="-142.3" font-family="Times,serif" font-size="14.00">&#45;circulateur : binaryexpression</text>
</g>
<!-- 12&#45;&gt;13 -->
<g id="edge6" class="edge"><title>12&#45;&gt;13</title>
<path fill="none" stroke="black" d="M673.258,-260.131C673.406,-241.869 673.59,-219.031 673.738,-200.698"/>
<polygon fill="black" stroke="black" points="673.258,-260.21 677.209,-266.242 673.161,-272.209 669.209,-266.177 673.258,-260.21"/>
</g>
<!-- 14 -->
<g id="node14" class="node"><title>14</title>
<polygon fill="khaki" stroke="black" points="621.48,-75.1 621.48,-116.7 726.52,-116.7 726.52,-75.1 621.48,-75.1"/>
<text text-anchor="middle" x="674" y="-100.1" font-family="Times,serif" font-size="14.00">«BLOCK»</text>
<text text-anchor="middle" x="674" y="-83.3" font-family="Times,serif" font-size="14.00"> CallExpression</text>
</g>
<!-- 13&#45;&gt;14 -->
<g id="edge7" class="edge"><title>13&#45;&gt;14</title>
<path fill="none" stroke="black" d="M674,-121.885C674,-120.219 674,-118.586 674,-117.002"/>
<polygon fill="black" stroke="black" points="674,-122.038 678,-128.038 674,-134.038 670,-128.038 674,-122.038"/>
</g>
<!-- 15 -->
<g id="node15" class="node"><title>15</title>
<polygon fill="khaki" stroke="black" points="599.705,-16.5 599.705,-58.1 748.295,-58.1 748.295,-16.5 599.705,-16.5"/>
<text text-anchor="middle" x="674" y="-41.5" font-family="Times,serif" font-size="14.00">«BLOCK»</text>
<text text-anchor="middle" x="674" y="-24.7" font-family="Times,serif" font-size="14.00"> AssignmentExpression</text>
</g>
<!-- 14&#45;&gt;15 -->
<g id="edge8" class="edge"><title>14&#45;&gt;15</title>
<path fill="none" stroke="black" d="M674,-62.6754C674,-61.2139 674,-59.7666 674,-58.3496"/>
<polygon fill="black" stroke="black" points="674,-62.7856 678,-68.7856 674,-74.7856 670,-68.7856 674,-62.7856"/>
</g>
<!-- 16 -->
<g id="node16" class="node"><title>16</title>
<polygon fill="lightblue" stroke="black" points="465.96,-272.3 465.96,-313.9 576.04,-313.9 576.04,-272.3 465.96,-272.3"/>
<text text-anchor="middle" x="521" y="-297.3" font-family="Times,serif" font-size="14.00">«FUNCTION»</text>
<text text-anchor="middle" x="521" y="-280.5" font-family="Times,serif" font-size="14.00"> circulateuroff()</text>
</g>
<!-- 17 -->
<g id="node17" class="node"><title>17</title>
<polygon fill="lightblue" stroke="black" points="414.856,-125.7 414.856,-208.9 573.144,-208.9 573.144,-125.7 414.856,-125.7"/>
<text text-anchor="middle" x="494" y="-192.3" font-family="Times,serif" font-size="14.00">«FUNCTION»</text>
<text text-anchor="middle" x="494" y="-175.5" font-family="Times,serif" font-size="14.00"> (err,data)</text>
<polyline fill="none" stroke="black" points="414.856,-167.3 573.144,-167.3 "/>
<text text-anchor="start" x="422.856" y="-150.7" font-family="Times,serif" font-size="14.00">&#45;deltat : binaryexpression</text>
<text text-anchor="start" x="422.856" y="-133.9" font-family="Times,serif" font-size="14.00">publicdata : object</text>
</g>
<!-- 16&#45;&gt;17 -->
<g id="edge9" class="edge"><title>16&#45;&gt;17</title>
<path fill="none" stroke="black" d="M514.104,-260.48C510.683,-244.795 506.512,-225.669 502.857,-208.913"/>
<polygon fill="black" stroke="black" points="514.105,-260.485 519.292,-265.495 516.662,-272.209 511.475,-267.2 514.105,-260.485"/>
</g>
<!-- 18 -->
<g id="node18" class="node"><title>18</title>
<polygon fill="khaki" stroke="black" points="441.48,-75.1 441.48,-116.7 546.52,-116.7 546.52,-75.1 441.48,-75.1"/>
<text text-anchor="middle" x="494" y="-100.1" font-family="Times,serif" font-size="14.00">«BLOCK»</text>
<text text-anchor="middle" x="494" y="-83.3" font-family="Times,serif" font-size="14.00"> CallExpression</text>
</g>
<!-- 17&#45;&gt;18 -->
<g id="edge10" class="edge"><title>17&#45;&gt;18</title>
<path fill="none" stroke="black" d="M494,-117.205C494,-117.119 494,-117.033 494,-116.947"/>
<polygon fill="black" stroke="black" points="494,-113.528 498,-119.528 494,-125.528 490,-119.528 494,-113.528"/>
</g>
<!-- 19 -->
<g id="node19" class="node"><title>19</title>
<polygon fill="lightblue" stroke="black" points="317.219,-272.3 317.219,-313.9 458.781,-313.9 458.781,-272.3 317.219,-272.3"/>
<text text-anchor="middle" x="388" y="-297.3" font-family="Times,serif" font-size="14.00">«FUNCTION»</text>
<text text-anchor="middle" x="388" y="-280.5" font-family="Times,serif" font-size="14.00"> receptiondton(socket)</text>
</g>
<!-- 20 -->
<g id="node20" class="node"><title>20</title>
<polygon fill="lightblue" stroke="black" points="297.96,-146.5 297.96,-188.1 408.04,-188.1 408.04,-146.5 297.96,-146.5"/>
<text text-anchor="middle" x="353" y="-171.5" font-family="Times,serif" font-size="14.00">«FUNCTION»</text>
<text text-anchor="middle" x="353" y="-154.7" font-family="Times,serif" font-size="14.00"> (dton)</text>
</g>
<!-- 19&#45;&gt;20 -->
<g id="edge11" class="edge"><title>19&#45;&gt;20</title>
<path fill="none" stroke="black" d="M379.041,-260.41C372.6,-237.629 364.115,-207.616 358.609,-188.141"/>
<polygon fill="black" stroke="black" points="379.112,-260.662 384.593,-265.347 382.377,-272.209 376.895,-267.524 379.112,-260.662"/>
</g>
<!-- 21 -->
<g id="node21" class="node"><title>21</title>
<polygon fill="lightblue" stroke="black" points="297.96,-75.1 297.96,-116.7 408.04,-116.7 408.04,-75.1 297.96,-75.1"/>
<text text-anchor="middle" x="353" y="-100.1" font-family="Times,serif" font-size="14.00">«FUNCTION»</text>
<text text-anchor="middle" x="353" y="-83.3" font-family="Times,serif" font-size="14.00"> (err,result)</text>
</g>
<!-- 20&#45;&gt;21 -->
<g id="edge12" class="edge"><title>20&#45;&gt;21</title>
<path fill="none" stroke="black" d="M353,-134.039C353,-128.294 353,-122.459 353,-117.169"/>
<polygon fill="black" stroke="black" points="353,-134.227 357,-140.227 353,-146.227 349,-140.227 353,-134.227"/>
</g>
<!-- 22 -->
<g id="node22" class="node"><title>22</title>
<polygon fill="lightblue" stroke="black" points="166.059,-272.3 166.059,-313.9 309.942,-313.9 309.942,-272.3 166.059,-272.3"/>
<text text-anchor="middle" x="238" y="-297.3" font-family="Times,serif" font-size="14.00">«FUNCTION»</text>
<text text-anchor="middle" x="238" y="-280.5" font-family="Times,serif" font-size="14.00"> receptiondtoff(socket)</text>
</g>
<!-- 23 -->
<g id="node23" class="node"><title>23</title>
<polygon fill="lightblue" stroke="black" points="180.96,-146.5 180.96,-188.1 291.04,-188.1 291.04,-146.5 180.96,-146.5"/>
<text text-anchor="middle" x="236" y="-171.5" font-family="Times,serif" font-size="14.00">«FUNCTION»</text>
<text text-anchor="middle" x="236" y="-154.7" font-family="Times,serif" font-size="14.00"> (dtoff)</text>
</g>
<!-- 22&#45;&gt;23 -->
<g id="edge13" class="edge"><title>22&#45;&gt;23</title>
<path fill="none" stroke="black" d="M237.483,-260.093C237.116,-237.352 236.634,-207.526 236.321,-188.141"/>
<polygon fill="black" stroke="black" points="237.485,-260.211 241.581,-266.146 237.679,-272.209 233.582,-266.275 237.485,-260.211"/>
</g>
<!-- 24 -->
<g id="node24" class="node"><title>24</title>
<polygon fill="lightblue" stroke="black" points="180.96,-75.1 180.96,-116.7 291.04,-116.7 291.04,-75.1 180.96,-75.1"/>
<text text-anchor="middle" x="236" y="-100.1" font-family="Times,serif" font-size="14.00">«FUNCTION»</text>
<text text-anchor="middle" x="236" y="-83.3" font-family="Times,serif" font-size="14.00"> (err,result)</text>
</g>
<!-- 23&#45;&gt;24 -->
<g id="edge14" class="edge"><title>23&#45;&gt;24</title>
<path fill="none" stroke="black" d="M236,-134.039C236,-128.294 236,-122.459 236,-117.169"/>
<polygon fill="black" stroke="black" points="236,-134.227 240,-140.227 236,-146.227 232,-140.227 236,-134.227"/>
</g>
<!-- 25 -->
<g id="node25" class="node"><title>25</title>
<polygon fill="lightblue" stroke="black" points="16.4435,-272.3 16.4435,-313.9 159.556,-313.9 159.556,-272.3 16.4435,-272.3"/>
<text text-anchor="middle" x="88" y="-297.3" font-family="Times,serif" font-size="14.00">«FUNCTION»</text>
<text text-anchor="middle" x="88" y="-280.5" font-family="Times,serif" font-size="14.00"> receptionrmin(socket)</text>
</g>
<!-- 26 -->
<g id="node26" class="node"><title>26</title>
<polygon fill="lightblue" stroke="black" points="32.96,-146.5 32.96,-188.1 143.04,-188.1 143.04,-146.5 32.96,-146.5"/>
<text text-anchor="middle" x="88" y="-171.5" font-family="Times,serif" font-size="14.00">«FUNCTION»</text>
<text text-anchor="middle" x="88" y="-154.7" font-family="Times,serif" font-size="14.00"> (rmin)</text>
</g>
<!-- 25&#45;&gt;26 -->
<g id="edge15" class="edge"><title>25&#45;&gt;26</title>
<path fill="none" stroke="black" d="M88,-260.093C88,-237.352 88,-207.526 88,-188.141"/>
<polygon fill="black" stroke="black" points="88.0001,-260.209 92,-266.209 88,-272.209 84,-266.209 88.0001,-260.209"/>
</g>
<!-- 27 -->
<g id="node27" class="node"><title>27</title>
<polygon fill="lightblue" stroke="black" points="32.96,-75.1 32.96,-116.7 143.04,-116.7 143.04,-75.1 32.96,-75.1"/>
<text text-anchor="middle" x="88" y="-100.1" font-family="Times,serif" font-size="14.00">«FUNCTION»</text>
<text text-anchor="middle" x="88" y="-83.3" font-family="Times,serif" font-size="14.00"> (err,result)</text>
</g>
<!-- 26&#45;&gt;27 -->
<g id="edge16" class="edge"><title>26&#45;&gt;27</title>
<path fill="none" stroke="black" d="M88,-134.039C88,-128.294 88,-122.459 88,-117.169"/>
<polygon fill="black" stroke="black" points="88.0001,-134.227 92,-140.227 88,-146.227 84,-140.227 88.0001,-134.227"/>
</g>
<!-- 1 -->
<g id="node28" class="node"><title>1</title>
<polygon fill="lightyellow" stroke="black" points="2215.09,-217.9 2215.09,-368.3 2518.91,-368.3 2518.91,-217.9 2215.09,-217.9"/>
<text text-anchor="middle" x="2367" y="-351.7" font-family="Times,serif" font-size="14.00">«GLOBAL»</text>
<polyline fill="none" stroke="black" points="2215.09,-343.5 2518.91,-343.5 "/>
<text text-anchor="start" x="2223.09" y="-326.9" font-family="Times,serif" font-size="14.00">&#45;MySQLEvents : variable = rodrigogsmysql&#45;events</text>
<text text-anchor="start" x="2223.09" y="-310.1" font-family="Times,serif" font-size="14.00">&#45;config : variable = .config.json</text>
<text text-anchor="start" x="2223.09" y="-293.3" font-family="Times,serif" font-size="14.00">&#45;express : variable = express</text>
<text text-anchor="start" x="2223.09" y="-276.5" font-family="Times,serif" font-size="14.00">&#45;io : variable = server</text>
<text text-anchor="start" x="2223.09" y="-259.7" font-family="Times,serif" font-size="14.00">&#45;mysql : variable = mysql</text>
<text text-anchor="start" x="2223.09" y="-242.9" font-family="Times,serif" font-size="14.00">&#45;pool : variable</text>
<text text-anchor="start" x="2223.09" y="-226.1" font-family="Times,serif" font-size="14.00">&#45;server : variable = express</text>
</g>
<!-- 28 -->
<g id="node29" class="node"><title>28</title>
<polygon fill="lightblue" stroke="black" points="2087.52,-259.9 2087.52,-326.3 2208.48,-326.3 2208.48,-259.9 2087.52,-259.9"/>
<text text-anchor="middle" x="2148" y="-309.7" font-family="Times,serif" font-size="14.00">«FUNCTION»</text>
<text text-anchor="middle" x="2148" y="-292.9" font-family="Times,serif" font-size="14.00"> ()</text>
<polyline fill="none" stroke="black" points="2087.52,-284.7 2208.48,-284.7 "/>
<text text-anchor="start" x="2095.52" y="-268.1" font-family="Times,serif" font-size="14.00">&#45;dbevent : variable</text>
</g>
<!-- 29 -->
<g id="node30" class="node"><title>29</title>
<polygon fill="lightblue" stroke="black" points="1969.57,-259.9 1969.57,-326.3 2080.43,-326.3 2080.43,-259.9 1969.57,-259.9"/>
<text text-anchor="middle" x="2025" y="-309.7" font-family="Times,serif" font-size="14.00">«FUNCTION»</text>
<text text-anchor="middle" x="2025" y="-292.9" font-family="Times,serif" font-size="14.00"> function</text>
<polyline fill="none" stroke="black" points="1969.57,-284.7 2080.43,-284.7 "/>
<text text-anchor="start" x="1977.57" y="-268.1" font-family="Times,serif" font-size="14.00">&#45;undefined(pool)</text>
</g>
<!-- 30 -->
<g id="node31" class="node"><title>30</title>
<polygon fill="lightblue" stroke="black" points="1969.96,-146.5 1969.96,-188.1 2080.04,-188.1 2080.04,-146.5 1969.96,-146.5"/>
<text text-anchor="middle" x="2025" y="-171.5" font-family="Times,serif" font-size="14.00">«FUNCTION»</text>
<text text-anchor="middle" x="2025" y="-154.7" font-family="Times,serif" font-size="14.00"> function</text>
</g>
<!-- 29&#45;&gt;30 -->
<g id="edge17" class="edge"><title>29&#45;&gt;30</title>
<path fill="none" stroke="black" d="M2025,-247.695C2025,-227.39 2025,-204.349 2025,-188.339"/>
<polygon fill="black" stroke="black" points="2025,-247.896 2029,-253.896 2025,-259.896 2021,-253.896 2025,-247.896"/>
</g>
<!-- 31 -->
<g id="node32" class="node"><title>31</title>
<polygon fill="lightblue" stroke="black" points="1852.96,-272.3 1852.96,-313.9 1963.04,-313.9 1963.04,-272.3 1852.96,-272.3"/>
<text text-anchor="middle" x="1908" y="-297.3" font-family="Times,serif" font-size="14.00">«FUNCTION»</text>
<text text-anchor="middle" x="1908" y="-280.5" font-family="Times,serif" font-size="14.00"> function</text>
</g>
<!-- 32 -->
<g id="node33" class="node"><title>32</title>
<polygon fill="lightblue" stroke="black" points="1725.72,-272.3 1725.72,-313.9 1846.28,-313.9 1846.28,-272.3 1725.72,-272.3"/>
<text text-anchor="middle" x="1786" y="-297.3" font-family="Times,serif" font-size="14.00">«FUNCTION»</text>
<text text-anchor="middle" x="1786" y="-280.5" font-family="Times,serif" font-size="14.00"> clientwebupdate()</text>
</g>
<!-- 33 -->
<g id="node34" class="node"><title>33</title>
<polygon fill="lightblue" stroke="black" points="1730.96,-146.5 1730.96,-188.1 1841.04,-188.1 1841.04,-146.5 1730.96,-146.5"/>
<text text-anchor="middle" x="1786" y="-171.5" font-family="Times,serif" font-size="14.00">«FUNCTION»</text>
<text text-anchor="middle" x="1786" y="-154.7" font-family="Times,serif" font-size="14.00"> (err,connection)</text>
</g>
<!-- 32&#45;&gt;33 -->
<g id="edge18" class="edge"><title>32&#45;&gt;33</title>
<path fill="none" stroke="black" d="M1786,-260.093C1786,-237.352 1786,-207.526 1786,-188.141"/>
<polygon fill="black" stroke="black" points="1786,-260.209 1790,-266.209 1786,-272.209 1782,-266.209 1786,-260.209"/>
</g>
<!-- 34 -->
<g id="node35" class="node"><title>34</title>
<polygon fill="lightblue" stroke="black" points="1728.96,-75.1 1728.96,-116.7 1839.04,-116.7 1839.04,-75.1 1728.96,-75.1"/>
<text text-anchor="middle" x="1784" y="-100.1" font-family="Times,serif" font-size="14.00">«FUNCTION»</text>
<text text-anchor="middle" x="1784" y="-83.3" font-family="Times,serif" font-size="14.00"> (err,pos)</text>
</g>
<!-- 33&#45;&gt;34 -->
<g id="edge19" class="edge"><title>33&#45;&gt;34</title>
<path fill="none" stroke="black" d="M1785.07,-134.039C1784.9,-128.294 1784.74,-122.459 1784.58,-117.169"/>
<polygon fill="black" stroke="black" points="1785.08,-134.232 1789.25,-140.114 1785.42,-146.227 1781.25,-140.344 1785.08,-134.232"/>
</g>
<!-- 35 -->
<g id="node36" class="node"><title>35</title>
<polygon fill="lightblue" stroke="black" points="1845.96,-75.1 1845.96,-116.7 1956.04,-116.7 1956.04,-75.1 1845.96,-75.1"/>
<text text-anchor="middle" x="1901" y="-100.1" font-family="Times,serif" font-size="14.00">«FUNCTION»</text>
<text text-anchor="middle" x="1901" y="-83.3" font-family="Times,serif" font-size="14.00"> (err,result)</text>
</g>
<!-- 33&#45;&gt;35 -->
<g id="edge20" class="edge"><title>33&#45;&gt;35</title>
<path fill="none" stroke="black" d="M1829.41,-140.101C1842.22,-132.375 1856.01,-124.05 1868.04,-116.79"/>
<polygon fill="black" stroke="black" points="1829.23,-140.212 1826.16,-146.737 1818.95,-146.413 1822.02,-139.888 1829.23,-140.212"/>
</g>
</g>
</svg>
